Coordinates
version=1
nRows=17
nColumns=40
inDegrees=yes

Units are S.I. units (second, meters, Newtons, ...)
Angles are in degrees.

endheader
time	pelvis_tilt	pelvis_list	pelvis_rotation	pelvis_tx	pelvis_ty	pelvis_tz	hip_flexion_r	hip_adduction_r	hip_rotation_r	knee_angle_r	knee_angle_r_beta	ankle_angle_r	subtalar_angle_r	mtp_angle_r	hip_flexion_l	hip_adduction_l	hip_rotation_l	knee_angle_l	knee_angle_l_beta	ankle_angle_l	subtalar_angle_l	mtp_angle_l	lumbar_extension	lumbar_bending	lumbar_rotation	arm_flex_r	arm_add_r	arm_rot_r	elbow_flex_r	pro_sup_r	wrist_flex_r	wrist_dev_r	arm_flex_l	arm_add_l	arm_rot_l	elbow_flex_l	pro_sup_l	wrist_flex_l	wrist_dev_l
      0.78000000	     -2.05958187	     -2.85787454	      6.88252700	      0.21603564	      0.88479467	      1.05819699	     17.36668599	      1.51685309	    -10.71471693	    -30.61304077	     -0.53429836	      8.80768180	     -5.73040251	      2.62211993	     17.06266289	      5.13270186	      2.17404665	    -68.38549405	     -1.19355203	     -5.56637937	     15.63427729	      7.20575097	     -3.11816325	      1.05110933	     -4.09637034	     -7.89585993	     -9.06360601	    -17.49137136	     23.65214551	     89.95437384	      0.00000000	      0.00000000	     -5.66042026	     11.10684332	     15.17184417	     58.46927728	     89.95437384	      0.00000000	      0.00000000
      0.79000000	     -2.06737537	     -2.71528083	      6.55125724	      0.22917212	      0.88619922	      1.05807272	     16.10157133	      1.62266261	    -10.30738957	    -30.03142997	     -0.52414733	      9.27510326	     -5.67889017	      2.49887284	     18.70244863	      4.93082826	      3.00629612	    -68.37034904	     -1.19328770	     -3.29662851	     16.07158174	      6.97410473	     -3.15255581	      0.86582011	     -3.46420006	     -7.20164398	     -9.11443726	    -17.15293788	     25.01002929	     89.95437384	      0.00000000	      0.00000000	     -5.99473800	     10.78657669	     15.34190630	     56.36716285	     89.95437384	      0.00000000	      0.00000000
      0.80000000	     -2.00874796	     -2.64874887	      6.14215178	      0.24220909	      0.88749085	      1.05813651	     14.74561592	      1.85462648	     -9.71040939	    -29.38489034	     -0.51286309	      9.64011114	     -5.63019985	      2.39123316	     20.20271700	      4.91217617	      3.91038245	    -68.09328249	     -1.18845198	     -1.23148028	     16.58133185	      6.85071784	     -3.28346874	      0.76743896	     -2.75877622	     -6.64311750	     -9.20206179	    -16.72322906	     26.71652696	     89.95437384	      0.00000000	      0.00000000	     -6.37403924	     10.55216304	     15.43915805	     54.40279522	     89.95437384	      0.00000000	      0.00000000
      0.81000000	     -1.97933726	     -2.59653871	      5.71948157	      0.25531547	      0.88865753	      1.05806979	     13.37262954	      2.01162336	     -9.42434851	    -28.64021674	     -0.49986608	      9.95599683	     -5.51520708	      2.29917110	     21.65791537	      4.93109460	      4.83770973	    -67.48463805	     -1.17782913	      0.28380459	     17.12222259	      6.88423780	     -3.36225138	      0.67779340	     -2.07009298	     -6.05749191	     -9.29700646	    -16.28848993	     28.42336727	     89.95437384	      0.00000000	      0.00000000	     -6.69097090	     10.16513017	     15.82947531	     52.33326018	     89.95437384	      0.00000000	      0.00000000
      0.82000000	     -1.77081601	     -2.57864032	      5.29166762	      0.26851185	      0.88992673	      1.05809793	     11.75028798	      2.21490335	     -9.18990588	    -27.74063252	     -0.48416537	     10.18655545	     -5.36220751	      2.12738722	     22.81233796	      5.05148660	      5.73162713	    -66.56736576	     -1.16181971	      1.83615608	     17.46230747	      7.38976939	     -3.64414534	      0.64051175	     -1.36736468	     -5.54229129	     -9.43538126	    -15.74348195	     30.34675172	     89.95437384	      0.00000000	      0.00000000	     -7.16257458	      9.95284417	     15.97164029	     50.51655165	     89.95437384	      0.00000000	      0.00000000
      0.83000000	     -1.88553458	     -2.54576745	      5.10832111	      0.28150883	      0.89051218	      1.05767126	     10.54009354	      2.25687764	     -9.19240275	    -27.01009827	     -0.47141515	     10.53637470	     -5.14471489	      2.00333182	     24.37387981	      4.97318723	      6.29823162	    -65.49040361	     -1.14302317	      3.14379337	     17.92777153	      7.51050406	     -3.55116533	      0.53864699	     -0.98439337	     -4.96150239	     -9.48237397	    -15.46997493	     32.11595435	     89.95437384	      0.00000000	      0.00000000	     -7.58886307	      9.64195538	     16.45611816	     48.58590494	     89.95437384	      0.00000000	      0.00000000
      0.84000000	     -2.01964379	     -2.54224424	      4.90277284	      0.29444611	      0.89083154	      1.05730086	      9.44512868	      2.28683128	     -9.46257275	    -26.43378338	     -0.46135655	     10.88797244	     -5.03570061	      1.90140719	     25.88905871	      5.01577888	      6.99497750	    -64.09733991	     -1.11870962	      4.15597426	     18.19322640	      7.57657137	     -3.42705405	      0.45114276	     -0.61326905	     -4.32286074	     -9.53253588	    -15.15204966	     33.79492522	     89.95437384	      0.00000000	      0.00000000	     -8.22955408	      9.49443296	     16.66867954	     47.05807900	     89.95437384	      0.00000000	      0.00000000
      0.85000000	     -1.59534472	     -2.43227779	      4.70068965	      0.30757001	      0.89195283	      1.05644714	      7.59237772	      2.27688993	     -9.34739457	    -25.59365381	     -0.44669353	     10.81515607	     -4.64816778	      0.29555353	     26.60820220	      4.81954518	      7.58206016	    -62.49250578	     -1.09069998	      6.79065404	     18.20564504	     18.26551363	     -3.99122652	      0.37876759	     -0.07669112	     -4.03671907	     -9.76304143	    -14.62721114	     36.26607105	     89.95437384	      0.00000000	      0.00000000	     -8.34186851	      9.08669628	     17.34764714	     44.97010229	     89.95437384	      0.00000000	      0.00000000
      0.86000000	     -1.46164850	     -2.39879982	      4.44858768	      0.32079846	      0.89229913	      1.05584266	      6.15344010	      2.30270817	     -9.30438081	    -24.97215504	     -0.43584633	     10.93525959	     -4.29251920	      0.18461498	     27.54591745	      4.85000596	      8.26840350	    -60.47169795	     -1.05543023	      7.47207049	     18.41735663	     18.25224476	     -4.17525119	      0.28623362	      0.38000995	     -3.56574216	     -9.90366660	    -14.20953347	     38.29870921	     89.95437384	      0.00000000	      0.00000000	     -8.85681931	      8.84955073	     17.79914337	     43.41325537	     89.95437384	      0.00000000	      0.00000000
      0.87000000	     -1.59832545	     -2.42142566	      4.28300639	      0.33365879	      0.89200913	      1.05501366	      5.09697728	      2.34144690	     -9.36655370	    -24.45540807	     -0.42682739	     11.16208010	     -4.08900041	      0.11261122	     28.80685009	      4.83266059	      8.78419649	    -58.32829556	     -1.01802080	      7.99144873	     18.56313082	     18.14935920	     -4.06629506	      0.25159468	      0.74576773	     -3.13485369	    -10.07574389	    -13.79371478	     40.36530002	     89.95437384	      0.00000000	      0.00000000	     -9.31298869	      8.61004055	     18.30076474	     41.77283117	     89.95437384	      0.00000000	      0.00000000
      0.88000000	     -1.80979100	     -2.60553368	      4.13170013	      0.34656087	      0.89129580	      1.05436564	      4.25695523	      2.52176150	     -9.66775888	    -24.18644881	     -0.42213317	     11.30922714	     -3.98633957	      0.07043072	     30.10443239	      5.09714765	      9.35380788	    -56.07339202	     -0.97866531	      8.25512253	     18.63617055	     18.00053415	     -3.84432120	      0.34126541	      0.99196002	     -2.49306303	    -10.17447395	    -13.50547730	     42.03777515	     89.95437384	      0.00000000	      0.00000000	    -10.09477177	      8.48128141	     18.51569532	     40.70716361	     89.95437384	      0.00000000	      0.00000000
      0.89000000	     -1.18759989	     -2.39855916	      3.74029887	      0.36002761	      0.89207450	      1.05321591	      2.09186791	      2.35431249	     -9.31790669	    -23.17801413	     -0.40453266	     11.34988786	     -3.35876251	     -0.11214803	     30.03864443	      4.98125849	     10.22313355	    -53.25323742	     -0.92944433	      8.71764491	     18.67427469	     18.62880139	     -4.62707771	      0.15368480	      1.71023961	     -2.21403174	    -10.50644728	    -13.00862335	     44.45962921	     89.95437384	      0.00000000	      0.00000000	    -10.12907074	      8.05974945	     19.50482301	     38.81577251	     89.95437384	      0.00000000	      0.00000000
      0.90000000	     -1.34836773	     -2.44561422	      3.50733300	      0.37302153	      0.89123270	      1.05193299	      1.10447788	      2.33628674	     -9.33326609	    -22.73657952	     -0.39682817	     11.50180622	     -3.10208254	     -0.22129964	     31.03148760	      4.96365985	     10.61104935	    -50.57118760	     -0.88263373	      8.80608576	     18.61092576	     18.64053185	     -4.48347795	      0.16099956	      2.12819707	     -1.82262123	    -10.80538174	    -12.53404072	     46.47921093	     89.95437384	      0.00000000	      0.00000000	    -10.58748044	      7.84669010	     19.88571667	     37.39876767	     89.95437384	      0.00000000	      0.00000000
      0.91000000	     -1.09482999	     -2.37293237	      3.16397377	      0.38630223	      0.89108434	      1.05064730	     -0.41005766	      2.16496977	     -9.35224539	    -22.19164218	     -0.38731722	     11.47472224	     -2.53640012	     -0.48915449	     31.31225638	      4.96545098	     11.30354611	    -47.63153924	     -0.83132719	      8.78221985	     18.44009098	     18.83473490	     -4.83182850	      0.03980049	      2.63374972	     -1.29807215	    -11.02794388	    -12.22972769	     48.33412535	     89.95437384	      0.00000000	      0.00000000	    -10.92858208	      7.53892714	     20.67275402	     36.02620886	     89.95437384	      0.00000000	      0.00000000
      0.92000000	     -1.09896664	     -2.35748097	      2.86250762	      0.39937382	      0.89035854	      1.04917310	     -1.58576926	      2.01255570	     -9.33136848	    -21.71026831	     -0.37891566	     11.40395908	     -2.05675542	     -0.71494421	     31.85303284	      4.91944072	     11.77215175	    -44.55687810	     -0.77766423	      8.62318801	     18.19432659	     18.71318791	     -4.87011486	     -0.01008383	      3.14087743	     -0.89022064	    -11.30755586	    -11.90444062	     50.22722863	     89.95437384	      0.00000000	      0.00000000	    -11.20725582	      7.30249110	     21.18719866	     34.56628592	     89.95437384	      0.00000000	      0.00000000
      0.93000000	     -1.28591215	     -2.44094145	      2.62655410	      0.41241950	      0.88913635	      1.04763447	     -2.47951342	      1.96136778	     -9.24613453	    -21.43577957	     -0.37412493	     11.38580835	     -1.61594399	     -0.88531955	     32.57454532	      4.93312525	     12.05379582	    -41.53987311	     -0.72500756	      8.54833829	     17.70083499	     18.36080245	     -4.69238971	      0.01805091	      3.50979499	     -0.50364109	    -11.60537503	    -11.48569269	     52.09277126	     89.95437384	      0.00000000	      0.00000000	    -11.66376605	      7.11332127	     21.59642318	     33.42999536	     89.95437384	      0.00000000	      0.00000000
      0.94000000	     -1.17677560	     -2.37709762	      2.32189752	      0.42583101	      0.88839870	      1.04609548	     -3.72883513	      1.65530596	     -9.56594135	    -21.07553278	     -0.36783744	     11.22900369	     -0.69458422	     -1.37365589	     32.70376316	      4.89924618	     12.65842569	    -38.33044193	     -0.66899242	      8.63465786	     17.15596594	     17.67937654	     -4.84690352	     -0.13528167	      3.93837000	     -0.05695266	    -11.77891926	    -11.28739521	     53.76649348	     89.95437384	      0.00000000	      0.00000000	    -11.98210258	      6.84843048	     22.47463379	     32.22503873	     89.95437384	      0.00000000	      0.00000000
